<svg width="32" height="32" viewBox="0 0 32 32" fill="none" xmlns="http://www.w3.org/2000/svg">
<g filter="url(#filter0_i_2_7)">
<path d="M30.9957 32C31.548 32 32.0037 31.5509 31.9653 30.9999C31.4184 23.1494 24.4795 16.9412 16 16.9412C7.52049 16.9412 0.581623 23.1494 0.0347238 30.9999C-0.00365766 31.5509 0.451354 32 1.00364 32C9.81578 32 7.47265 32 16 32C24.3931 32 24.9617 32 30.9957 32Z" fill="white"/>
</g>
<path d="M30.9957 31.95C31.5217 31.95 31.9516 31.5229 31.9154 31.0034C31.3705 23.1814 24.4557 16.9912 16 16.9912C7.54433 16.9912 0.629513 23.1814 0.0846029 31.0034C0.0484099 31.5229 0.477767 31.95 1.00364 31.95L16 31.95L30.9957 31.95Z" stroke="white" stroke-width="0.1"/>
<g filter="url(#filter1_i_2_7)">
<ellipse cx="16" cy="7.52942" rx="8" ry="7.52942" fill="white"/>
</g>
<path d="M23.95 7.52942C23.95 11.6574 20.3936 15.0088 16 15.0088C11.6064 15.0088 8.05 11.6574 8.05 7.52942C8.05 3.40146 11.6064 0.05 16 0.05C20.3936 0.05 23.95 3.40146 23.95 7.52942Z" stroke="white" stroke-width="0.1"/>
<defs>
<filter id="filter0_i_2_7" x="0.0324593" y="16.9412" width="31.9351" height="19.0588" filterUnits="userSpaceOnUse" color-interpolation-filters="sRGB">
<feFlood flood-opacity="0" result="BackgroundImageFix"/>
<feBlend mode="normal" in="SourceGraphic" in2="BackgroundImageFix" result="shape"/>
<feColorMatrix in="SourceAlpha" type="matrix" values="0 0 0 0 0 0 0 0 0 0 0 0 0 0 0 0 0 0 127 0" result="hardAlpha"/>
<feOffset dy="4"/>
<feGaussianBlur stdDeviation="2"/>
<feComposite in2="hardAlpha" operator="arithmetic" k2="-1" k3="1"/>
<feColorMatrix type="matrix" values="0 0 0 0 0 0 0 0 0 0 0 0 0 0 0 0 0 0 0.25 0"/>
<feBlend mode="normal" in2="shape" result="effect1_innerShadow_2_7"/>
</filter>
<filter id="filter1_i_2_7" x="8" y="0" width="16" height="19.0588" filterUnits="userSpaceOnUse" color-interpolation-filters="sRGB">
<feFlood flood-opacity="0" result="BackgroundImageFix"/>
<feBlend mode="normal" in="SourceGraphic" in2="BackgroundImageFix" result="shape"/>
<feColorMatrix in="SourceAlpha" type="matrix" values="0 0 0 0 0 0 0 0 0 0 0 0 0 0 0 0 0 0 127 0" result="hardAlpha"/>
<feOffset dy="4"/>
<feGaussianBlur stdDeviation="2"/>
<feComposite in2="hardAlpha" operator="arithmetic" k2="-1" k3="1"/>
<feColorMatrix type="matrix" values="0 0 0 0 0 0 0 0 0 0 0 0 0 0 0 0 0 0 0.25 0"/>
<feBlend mode="normal" in2="shape" result="effect1_innerShadow_2_7"/>
</filter>
</defs>
</svg>
