<svg width="26" height="27" viewBox="0 0 26 27" fill="none" xmlns="http://www.w3.org/2000/svg">
<path d="M14 1C14 0.447715 13.5523 0 13 0C12.4477 0 12 0.447715 12 1L14 1ZM12.2929 22.7071C12.6834 23.0976 13.3166 23.0976 13.7071 22.7071L20.0711 16.3431C20.4616 15.9526 20.4616 15.3195 20.0711 14.9289C19.6805 14.5384 19.0474 14.5384 18.6569 14.9289L13 20.5858L7.34315 14.9289C6.95262 14.5384 6.31946 14.5384 5.92893 14.9289C5.53841 15.3195 5.53841 15.9526 5.92893 16.3431L12.2929 22.7071ZM12 1L12 22H14L14 1L12 1Z" fill="url(#paint0_linear_2_13)"/>
<g filter="url(#filter0_i_2_13)">
<path d="M1 26H25" stroke="white" stroke-width="2" stroke-linecap="round"/>
</g>
<defs>
<filter id="filter0_i_2_13" x="0" y="25" width="26" height="6" filterUnits="userSpaceOnUse" color-interpolation-filters="sRGB">
<feFlood flood-opacity="0" result="BackgroundImageFix"/>
<feBlend mode="normal" in="SourceGraphic" in2="BackgroundImageFix" result="shape"/>
<feColorMatrix in="SourceAlpha" type="matrix" values="0 0 0 0 0 0 0 0 0 0 0 0 0 0 0 0 0 0 127 0" result="hardAlpha"/>
<feOffset dy="4"/>
<feGaussianBlur stdDeviation="2"/>
<feComposite in2="hardAlpha" operator="arithmetic" k2="-1" k3="1"/>
<feColorMatrix type="matrix" values="0 0 0 0 0 0 0 0 0 0 0 0 0 0 0 0 0 0 0.1 0"/>
<feBlend mode="normal" in2="shape" result="effect1_innerShadow_2_13"/>
</filter>
<linearGradient id="paint0_linear_2_13" x1="12.5" y1="1" x2="12.5" y2="22" gradientUnits="userSpaceOnUse">
<stop stop-color="#999999"/>
<stop offset="1" stop-color="white"/>
</linearGradient>
</defs>
</svg>
